<?xml version="1.0" encoding="utf-8"?>

<!DOCTYPE svg PUBLIC "-//W3C//DTD SVG 1.1//EN" "http://www.w3.org/Graphics/SVG/1.1/DTD/svg11.dtd">
<!-- Uploaded to: SVG Repo, www.svgrepo.com, Generator: SVG Repo Mixer Tools -->
<svg version="1.1" id="_x32_" xmlns="http://www.w3.org/2000/svg" xmlns:xlink="http://www.w3.org/1999/xlink" 
	 width="800px" height="800px" viewBox="0 0 512 512"  xml:space="preserve">
<style type="text/css">
<![CDATA[
	.st0{fill:#000000;}
]]>
</style>
<g>
	<path class="st0" d="M319.438,218.141H21.469C9.609,218.141,0,227.734,0,239.609v171.5c0,11.859,9.609,21.469,21.469,21.469
		h297.969c11.859,0,21.469-9.609,21.469-21.469v-171.5C340.906,227.734,331.297,218.141,319.438,218.141z"/>
	<path class="st0" d="M503.797,256.344c-5.188-4.063-11.953-5.516-18.359-3.969l-104.766,25.531
		c-9.641,2.344-16.391,10.953-16.391,20.859v50.844c0,9.906,6.75,18.516,16.391,20.859L485.438,396
		c6.406,1.547,13.172,0.094,18.359-3.969c5.172-4.078,8.203-10.313,8.203-16.891V273.234
		C512,266.656,508.969,260.422,503.797,256.344z"/>
	<path class="st0" d="M26.094,131.563h106.719c6.594,0,12.75,3.031,16.75,8.172l41.281,52.484h66.313l-66.563-84.641
		c-6.969-8.953-15.734-15.906-25.656-20.766c-9.891-4.797-20.844-7.391-32.125-7.391H26.094c-14.438,0-26.063,11.641-26.063,26.063
		S11.656,131.563,26.094,131.563z"/>
</g>
</svg>